<?xml version="1.0" encoding="utf-8"?>
<!-- Generator: Adobe Illustrator 24.2.0, SVG Export Plug-In . SVG Version: 6.00 Build 0)  -->
<svg version="1.1" id="Camada_1" xmlns="http://www.w3.org/2000/svg" xmlns:xlink="http://www.w3.org/1999/xlink" x="0px" y="0px"
	 viewBox="0 0 153 53" style="enable-background:new 0 0 153 53;" xml:space="preserve">
<style type="text/css">
	.st0{clip-path:url(#SVGID_2_);fill:#1D1D1B;}
	.st1{fill:#E30613;}
</style>
<g>
	<g>
		<defs>
			<rect id="SVGID_1_" x="0.4" y="-0.2" width="152.8" height="53.5"/>
		</defs>
		<clipPath id="SVGID_2_">
			<use xlink:href="#SVGID_1_"  style="overflow:visible;"/>
		</clipPath>
		<path class="st0" d="M146.7,34.8v-5.3c0-1.8-1.3-2.6-2.7-2.6c-1.7,0-2.6,0.8-2.6,2.6v5.2c0,1.8,0.9,2.8,2.7,2.8
			C145.7,37.5,146.7,36.5,146.7,34.8 M153.2,34.7c0,5.6-4.6,7.6-9.1,7.6c-4.7,0-9.1-1.8-9.1-7.6v-5c0-5.3,4.3-7.6,9-7.6
			c4.6,0,9.2,1.9,9.2,7.6V34.7z M132.7,41.9h-6.4v-7.2h-5.1v7.2h-6.4V22.4h6.4v7h5.1v-7h6.4V41.9z M112.7,41.9H96.9V22.4h6.4v14.8
			h9.4V41.9z M94.6,41.9H78.8V22.4h15.8v4.7h-9.4v2.7h7.5v4.7h-7.5v2.6h9.4V41.9z M69.8,34.8v-5.3c0-1.8-1.3-2.6-2.7-2.6
			c-1.7,0-2.6,0.8-2.6,2.6v5.2c0,1.8,0.9,2.8,2.7,2.8C68.8,37.5,69.8,36.5,69.8,34.8 M76.3,34.7c0,5.6-4.6,7.6-9.1,7.6
			c-4.7,0-9.1-1.8-9.1-7.6v-5c0-5.3,4.3-7.6,9-7.6c4.6,0,9.2,1.9,9.2,7.6V34.7z M56.6,35.9c0,4.6-4.6,6.4-8.7,6.4
			c-4.5,0-9-1.9-9-7.3v-5.7c0-5,4.4-7.2,8.9-7.2c4,0,8.8,1.8,8.8,6.5v1.2h-6v-0.6c0-1.5-1.3-2.3-2.6-2.3c-1.6,0-2.7,0.8-2.7,2.5v5.6
			c0,1.6,0.9,2.6,2.7,2.6c1.3,0,2.6-0.7,2.6-2.3v-0.6h6V35.9z M94.9,13.2c0,4.9-4.6,6.7-8.6,6.7c-3.4,0-6.2-0.3-9-2.2l3-4.3
			c1.3,1,3.4,2,5.4,2c1,0,2.4-0.2,2.4-1.1c0-0.9-0.8-1.1-1.8-1.4c-0.1,0,0.1,0-0.2-0.1L82.8,12C80,11.3,78,9.4,78,6.5
			c0-3.6,3.2-6.7,8.3-6.7c3.8,0,5.6,0.6,7.9,1.9l-3.4,4c-1.1-0.8-3-1.3-4.2-1.3c-1.3,0-2.3,0.3-2.3,1.2c0,0.9,1.1,1,2.5,1.4l2.9,0.8
			C93.2,8.7,94.9,10.6,94.9,13.2 M69.8,12.5V7.2c0-1.8-1.3-2.6-2.7-2.6c-1.7,0-2.6,0.8-2.6,2.6v5.2c0,1.8,0.9,2.8,2.7,2.8
			C68.8,15.2,69.8,14.1,69.8,12.5 M76.3,12.4c0,5.6-4.6,7.6-9.1,7.6c-4.7,0-9.1-1.8-9.1-7.6v-5c0-5.3,4.3-7.6,9-7.6
			c4.6,0,9.2,1.9,9.2,7.6V12.4z M55.8,12.6c0,4.6-3.1,7.3-8.2,7.3c-5.4,0-8.7-1.6-8.7-6.8v-0.8H45v0.7c0,1.1,0.5,2.1,2.2,2.1
			c1.8,0,2.2-1.2,2.2-2.2V0.1h6.4V12.6z M96.9,19.6V0.1h8.7l-1.1,2.3h2.8l1.9-2.3h3.5v4.7h-9.4v2.7h7.5v4.7h-7.5v2.6h9.4v4.8h-9.4
			H96.9z M144.8,50.9c0,0.7-0.6,1.2-1.6,1.2c-1,0-1.7-0.5-1.7-1.5V49c0-0.9,0.7-1.6,1.7-1.6c1,0,1.6,0.5,1.6,1.2v0.2h-0.4
			c0-0.6-0.4-1-1.2-1c-0.8,0-1.2,0.5-1.2,1.2v1.6c0,0.7,0.4,1.2,1.3,1.2c0.8,0,1.2-0.4,1.2-0.9l0.4-0.1V50.9z M136.6,52h-2.5v-0.4h1
			v-3.8h-1v-0.4h2.5v0.4h-1v3.8h1V52z M129.2,50.7c0,1-0.7,1.5-1.7,1.5c-1,0-1.7-0.5-1.7-1.5v-1.6c0-1,0.7-1.6,1.7-1.6
			c1,0,1.6,0.5,1.6,1.2v0.2h-0.4c0-0.6-0.4-1-1.2-1c-0.8,0-1.2,0.5-1.2,1.2v1.6c0,0.7,0.4,1.2,1.3,1.2c0.8,0,1.2-0.4,1.2-1v-0.6
			h-1.2v-0.4h1.6V50.7z M120.6,50.6V49c0-0.7-0.4-1.1-1.3-1.1c-0.8,0-1.2,0.5-1.2,1.2v1.5c0,0.7,0.4,1.2,1.3,1.2
			C120.2,51.8,120.6,51.3,120.6,50.6 M121,50.5c0,1-0.7,1.6-1.7,1.6c-1,0-1.7-0.5-1.7-1.5v-1.6c0-1,0.7-1.6,1.7-1.6
			c1,0,1.7,0.5,1.7,1.5V50.5z M120.2,46l-0.7,1.1h-0.3l0.5-1.1H120.2z M113,52h-2.7v-4.5h0.4v4.2h2.3V52z M104.9,50.6V49
			c0-0.7-0.4-1.1-1.3-1.1c-0.8,0-1.2,0.5-1.2,1.2v1.5c0,0.7,0.4,1.2,1.3,1.2C104.5,51.8,104.9,51.3,104.9,50.6 M105.4,50.5
			c0,1-0.7,1.6-1.7,1.6c-1,0-1.7-0.5-1.7-1.5v-1.6c0-1,0.7-1.6,1.7-1.6c1,0,1.7,0.5,1.7,1.5V50.5z M97.1,52h-2.7v-4.5h2.7v0.4h-2.3
			v1.6h1.8v0.4h-1.8v1.8h2.3V52z M89.5,50.8c0,0.9-0.9,1.3-1.7,1.3c-0.7,0-1.6-0.4-1.6-1.3v-3.3h0.4v3.2c0,0.7,0.6,1,1.2,1
			c0.6,0,1.2-0.3,1.2-1v-3.2h0.4V50.8z M80.9,50.6V49c0-0.7-0.4-1.1-1.3-1.1c-0.8,0-1.2,0.5-1.2,1.2v1.5c0,0.7,0.4,1.2,1.3,1.2
			c0.3,0,0.5,0,0.7-0.1l-0.5-0.4l0.2-0.3l0.6,0.4C80.8,51.2,80.9,50.9,80.9,50.6 M81.5,52.1l-0.2,0.3l-0.7-0.5
			c-0.3,0.2-0.6,0.3-1,0.3c-1,0-1.7-0.5-1.7-1.5v-1.6c0-1,0.7-1.6,1.7-1.6c1,0,1.7,0.5,1.7,1.5v1.6c0,0.5-0.2,0.8-0.4,1.1L81.5,52.1
			z M72.6,48.8c0-0.6-0.5-1-1.2-1h-0.9v2h1C72.2,49.9,72.6,49.5,72.6,48.8 M73.2,52h-0.5l-1.3-1.8h-0.9V52H70v-4.5h1.5
			c0.9,0,1.5,0.5,1.5,1.3c0,0.8-0.5,1.2-1.2,1.4L73.2,52z M64.2,50.3l-0.8-2.2l-0.8,2.2H64.2z M65.3,52h-0.4l-0.5-1.4h-1.9L62,52
			h-0.4l1.7-4.6h0.4L65.3,52z M50.9,50.6V49c0-0.7-0.4-1.1-1.3-1.1c-0.8,0-1.2,0.5-1.2,1.2v1.5c0,0.7,0.4,1.2,1.3,1.2
			C50.5,51.8,50.9,51.3,50.9,50.6 M51.4,50.5c0,1-0.7,1.6-1.7,1.6c-1,0-1.7-0.5-1.7-1.5v-1.6c0-1,0.7-1.6,1.7-1.6
			c1,0,1.7,0.5,1.7,1.5V50.5z M42.4,50.3l-0.8-2.2l-0.8,2.2H42.4z M43.5,52H43l-0.5-1.4h-1.9L40.2,52h-0.4l1.7-4.6h0.4L43.5,52z
			 M42.7,46.4c-0.1,0.3-0.2,0.5-0.5,0.5c-0.2,0-0.3,0-0.5-0.1c-0.2-0.1-0.3-0.1-0.5-0.1c-0.2,0-0.2,0.1-0.3,0.2l-0.2,0
			c0.1-0.3,0.3-0.5,0.6-0.5c0.2,0,0.3,0.1,0.5,0.1c0.2,0,0.3,0.1,0.5,0.1c0.2,0,0.2-0.1,0.3-0.3L42.7,46.4z M35.2,50.9
			c0,0.6-0.6,1.1-1.5,1.2l-0.1,0.3c0.4,0,0.6,0.1,0.6,0.4c0,0.3-0.3,0.5-0.8,0.5c-0.2,0-0.5-0.1-0.6-0.1v-0.2
			c0.2,0.1,0.5,0.1,0.6,0.1c0.3,0,0.4-0.1,0.4-0.2c0-0.2-0.2-0.2-0.3-0.2l-0.3,0l0.1-0.5c-0.9,0-1.6-0.5-1.6-1.5V49
			c0-0.9,0.7-1.6,1.7-1.6c1,0,1.6,0.5,1.6,1.2v0.2h-0.4c0-0.6-0.4-1-1.2-1c-0.8,0-1.2,0.5-1.2,1.2v1.6c0,0.7,0.4,1.2,1.3,1.2
			c0.8,0,1.2-0.4,1.2-0.9l0.4-0.1V50.9z M27,52h-2.7v-4.5H27v0.4h-2.3v1.6h1.8v0.4h-1.8v1.8H27V52z M19.5,52h-2.7v-4.5h0.4v4.2h2.3
			V52z M11.4,50.6V49c0-0.7-0.4-1.1-1.3-1.1c-0.8,0-1.2,0.5-1.2,1.2v1.5c0,0.7,0.4,1.2,1.3,1.2C11,51.8,11.4,51.3,11.4,50.6
			 M11.9,50.5c0,1-0.7,1.6-1.7,1.6c-1,0-1.7-0.5-1.7-1.5v-1.6c0-1,0.7-1.6,1.7-1.6c1,0,1.7,0.5,1.7,1.5V50.5z M3.7,50.9
			c0,0.7-0.6,1.2-1.6,1.2c-1,0-1.7-0.5-1.7-1.5V49c0-0.9,0.7-1.6,1.7-1.6c1,0,1.6,0.5,1.6,1.2v0.2H3.3c0-0.6-0.4-1-1.2-1
			c-0.8,0-1.2,0.5-1.2,1.2v1.6c0,0.7,0.4,1.2,1.3,1.2c0.8,0,1.2-0.4,1.2-0.9l0.4-0.1V50.9z M153.1,52h-0.4l-0.5-1.4h-1.9l-0.5,1.4
			h-0.4l1.7-4.6h0.4L153.1,52z M152,50.3l-0.8-2.2l-0.8,2.2H152z"/>
	</g>
	<path class="st1" d="M0.4,0.1v41.8h7.7l3.3-4.8l-3.2-4.8l1.6-4.4l-3.6-5.7l2.7-5.4l-3.5-4.8l3.1-6.4L5.1,0.1H0.4z M13.7,0.1v41.8
		h9.4l-3.3-5.7l2.7-4.3l-1.9-5l1.9-3.6l-2.4-6l1.9-5.2l-2.6-5.9L22,0.1H13.7z M26.8,0.1v41.8h5.9l1.8-19.4l-3.6-6.1l2.5-4.8L29.7,6
		L32,0.1H26.8z"/>
</g>
</svg>
